<svg xmlns="http://www.w3.org/2000/svg" width="48" height="24" viewBox="0 0 48 24">
  <!-- Back paw (lower/left, like the emoji trail) -->
  <g transform="translate(2,4) rotate(-15 12 12) scale(0.75)">
    <path fill="#4A3425" d="M4.5 10C5.88 10 7 8.88 7 7.5S5.88 5 4.5 5 2 6.12 2 7.5 3.12 10 4.5 10zM9.5 7C10.88 7 12 5.88 12 4.5S10.88 2 9.5 2 7 3.12 7 4.5 8.12 7 9.5 7zM14.5 7C15.88 7 17 5.88 17 4.5S15.88 2 14.5 2 12 3.12 12 4.5 13.12 7 14.5 7zM19.5 10C20.88 10 22 8.88 22 7.5S20.88 5 19.5 5 17 6.12 17 7.5 18.12 10 19.5 10zM12 13C10.14 13 6 14 6 17s2.69 5 6 5 6-2 6-5-4.14-4-6-4z"/>
  </g>

  <!-- Front paw (higher/right, like the emoji trail) -->
  <g transform="translate(22,-2) rotate(-15 12 12) scale(0.75)">
    <path fill="#4A3425" d="M4.5 10C5.88 10 7 8.88 7 7.5S5.88 5 4.5 5 2 6.12 2 7.5 3.12 10 4.5 10zM9.5 7C10.88 7 12 5.88 12 4.5S10.88 2 9.5 2 7 3.12 7 4.5 8.12 7 9.5 7zM14.5 7C15.88 7 17 5.88 17 4.5S15.88 2 14.5 2 12 3.12 12 4.5 13.12 7 14.5 7zM19.5 10C20.88 10 22 8.88 22 7.5S20.88 5 19.5 5 17 6.12 17 7.5 18.12 10 19.5 10zM12 13C10.14 13 6 14 6 17s2.69 5 6 5 6-2 6-5-4.14-4-6-4z"/>
  </g>
</svg>
